# xmcd
#
# Track frame offsets:
#	150
#	22542
#	35140
#	50487
#	75585
#	96435
#	117907
#	134332
#	151457
#	170640
#	185975
#	206335
#
# Disc length: 3066 seconds
#
# Revision: 1
# Processed by: cddbd v1.5.1PL0 Copyright (c) Steve Scherf et al.
# Submitted via: CDex 1.50Beta5
#
DISCID=a10bf80c
DTITLE=MODS,THE - F.A.B.
DYEAR=1992
DGENRE=Rock
TTITLE0=RUMBLING IN THE JUNGLE
TTITLE1=Limousine Cow Boy
TTITLE2=Vicious
TTITLE3=ロメオとジュリエット
TTITLE4=誰もが誰かを
TTITLE5=Hey Mr.DRIVER
TTITLE6=Dynamite
TTITLE7=墜落のメロディー
TTITLE8=LONG WAY
TTITLE9=(I wanna be a)GANGSTAR
TTITLE10=Sad Memory
TTITLE11=DID I SAY
EXTD=
EXTT0=
EXTT1=
EXTT2=
EXTT3=
EXTT4=
EXTT5=
EXTT6=
EXTT7=
EXTT8=
EXTT9=
EXTT10=
EXTT11=
PLAYORDER=
